<?xml version="1.0" encoding="UTF-8"?>
<svg width="131px" height="50px" viewBox="0 0 131 50" version="1.1" xmlns="http://www.w3.org/2000/svg" xmlns:xlink="http://www.w3.org/1999/xlink">
    <!-- Generator: Sketch 47.1 (45422) - http://www.bohemiancoding.com/sketch -->
    <title>bien-logo</title>
    <desc>Created with Sketch.</desc>
    <defs></defs>
    <g id="Page-1" stroke="none" stroke-width="1" fill="none" fill-rule="evenodd">
        <g id="bien-logo" fill="#1E1E1E">
            <g id="Page-1-Copy">
                <g id="Group-3">
                    <path d="M26.0754263,30.1966102 C26.0592783,28.5983051 26.0074348,26.8330508 25.4218576,25.1347458 C24.8090838,23.3559322 23.3651134,22.4508475 21.4868471,22.6211864 C19.6315278,22.7898305 18.1918069,23.7440678 16.9033671,24.9847458 C15.127938,26.6957627 13.8751938,28.779661 12.7125384,30.9237288 C12.6564454,31.0279661 12.6249993,31.1491525 12.6012022,31.2661017 C11.9059887,34.6042373 11.212475,37.9415254 10.5257604,41.2813559 C10.4909147,41.4508475 10.4577688,41.6661017 10.5300098,41.8050847 C11.3527075,43.3813559 12.5272614,44.6322034 14.2958914,45.0474576 C16.8574728,45.6491525 19.2261282,45.0508475 21.3134686,43.4677966 C22.9529147,42.2228814 23.9591895,40.5067797 24.6994475,38.6262712 C25.7431177,35.9720339 26.061828,33.1949153 26.0754263,30.1966102 M9.18887665,0.661864407 C12.4762678,0.441525424 15.7364623,0.222033898 19.05105,0 C17.4388005,7.72711864 15.8384496,15.4 14.2372487,23.0728814 C14.2644454,23.0872881 14.2907921,23.1025424 14.3179887,23.1169492 C14.4531219,22.9033898 14.5874052,22.6872881 14.725938,22.4737288 C16.0866187,20.3694915 17.5416377,18.3237288 19.6111303,16.8576271 C23.1126948,14.3779661 26.8853756,13.9135593 30.7991388,15.7932203 C32.767494,16.7389831 33.9904919,18.4372881 34.7944919,20.4313559 C35.5636462,22.3415254 35.765921,24.3415254 35.7293756,26.3830508 C35.6783819,29.2898305 35.2372868,32.1279661 34.2378111,34.8618644 C32.1071261,40.6881356 28.4126356,45.1533898 22.7200437,47.8305085 C20.0199295,49.1008475 17.1515363,49.6101695 14.1701071,49.6228814 C9.94698236,49.6423729 5.99667369,48.6016949 2.23674134,46.7423729 C1.57212401,46.4135593 0.904107094,46.0940678 0.231840709,45.7813559 C0.0168174529,45.6813559 -0.0316265217,45.5686441 0.0176673472,45.3262712 C1.35710075,38.8389831 2.68548553,32.35 4.0155701,25.8610169 C5.54622972,18.3966102 7.07773923,10.9330508 8.60924874,3.46779661 C8.79707538,2.55169492 8.9874517,1.63644068 9.18887665,0.661864407" id="Fill-1"></path>
                </g>
                <path d="M90,49.3045859 C92.2482036,37.9552669 94.4947092,26.6190565 96.751403,15.2295382 C100.004846,15.0276677 103.260835,14.8257971 106.602576,14.6186832 C105.990433,17.7987996 105.391025,20.9151214 104.791617,24.0305693 C104.817088,24.0428039 104.84171,24.0550385 104.86718,24.067273 C104.963968,23.9064757 105.0667,23.7483001 105.155847,23.5840072 C106.326645,21.4307215 107.599325,19.3517171 109.295666,17.5864423 C111.529436,15.2592508 114.247997,14.0812357 117.421631,14.0087021 C118.924396,13.9737462 120.412727,14.0235584 121.85606,14.5461496 C124.691785,15.5721064 126.416993,18.019022 126.525667,21.1152441 C126.590193,22.9582959 126.216624,24.7375531 125.927109,26.5325405 C125.410905,29.7397478 124.879419,32.9452072 124.395477,36.1585318 C124.285105,36.8899847 124.314821,37.6511503 124.337744,38.3957117 C124.362366,39.2005722 124.966868,39.5903309 125.652875,39.1970766 C126.054461,38.9663674 126.42803,38.5809782 126.666605,38.1728676 C127.189601,37.283239 127.609865,36.3306898 128.093806,35.4157181 C128.16003,35.2907506 128.362945,35.1421879 128.478412,35.1605397 C129.296018,35.2951201 130.107681,35.4690259 131,35.6473012 C130.370028,37.326934 129.7876,38.978602 129.133855,40.5988097 C128.227951,42.8464765 127.187903,45.0259792 125.644385,46.9013652 C124.325858,48.5040949 122.753474,49.7231832 120.654698,49.9329188 C118.793647,50.1181853 116.960614,49.9643792 115.316063,48.9008448 C114.079891,48.1012277 113.542461,46.8646615 113.357375,45.4305941 C113.069557,43.203027 113.421052,41.0235243 113.853202,38.8518867 C114.587604,35.1640353 115.3271,31.4770579 116.041975,27.784837 C116.255079,26.6828511 116.248286,25.5756217 115.714253,24.549665 C115.009567,23.1959963 113.78613,22.8796451 112.43534,22.9399441 C110.647305,23.0203427 109.32708,24.067273 108.163074,25.3318041 C106.326645,27.3277881 105.028494,29.7012962 103.704024,32.0669393 C102.852457,33.5866487 102.585865,35.2348211 102.261539,36.8899847 C101.475347,40.9169087 100.692551,44.9438327 99.9190947,48.9725045 C99.8698515,49.2285567 99.804477,49.3421635 99.5251496,49.3412896 C96.4211344,49.3308028 93.3188172,49.3351723 90.2156509,49.3334245 C90.1562196,49.3334245 90.0967882,49.3185683 90,49.3045859" id="Fill-4"></path>
                <path d="M66.1232995,28.7731864 C66.2258116,28.7731864 66.2866238,28.784527 66.3413549,28.7714417 C69.1604375,28.1241518 71.9647514,27.4227758 74.6596032,26.3480304 C76.0052917,25.8106577 77.2719242,25.1424312 78.2961764,24.0790265 C79.1701354,23.1709015 79.4672467,22.0900496 79.2604851,20.866131 C79.089342,19.8620466 78.4464695,19.2758218 77.4830296,19.0734347 C75.8949609,18.7393215 74.3703106,19.0062631 72.9316663,19.7224693 C70.4566073,20.9551115 68.7173767,22.9353648 67.4038319,25.3264988 C66.8130842,26.4012442 66.4056421,27.5457783 66.1232995,28.7731864 M82.3584353,33.1899363 C84.0559661,33.5196877 85.7369907,33.8459497 87.4831713,34.1852971 C87.2981283,34.7479682 87.1365414,35.2748726 86.9532359,35.7930534 C86.0297583,38.3961705 84.8656379,40.8754127 83.1976445,43.0912027 C80.549705,46.6076789 77.125106,48.9089601 72.7709482,49.6809971 C69.6226106,50.2393064 66.5029417,50.1302616 63.5214035,48.8269584 C61.0220196,47.7347658 59.2767078,45.8574508 58.1768746,43.3764639 C57.0040668,40.7306012 56.8598548,37.9364377 57.0952851,35.1004009 C57.3420092,32.130021 58.0448251,29.271303 59.3974635,26.6114826 C62.0905779,21.3180126 66.0320811,17.3304629 71.6928337,15.3188047 C75.3841379,14.0067779 79.1918541,13.5540239 83.0629888,14.5118733 C84.5537579,14.8808809 85.9081338,15.5578309 87.0731229,16.5784901 C88.6846478,17.9917105 89.1555085,19.8035986 88.9574342,21.8806837 C88.7176602,24.3974373 87.3337469,26.150005 85.3338923,27.5065222 C83.1324885,29.0008719 80.6348421,29.7763984 78.1024459,30.4507313 C74.2356549,31.4801141 70.293283,32.0968714 66.3309299,32.6002221 C66.1406744,32.6246482 65.9052441,32.5714343 65.926094,32.8985687 C66.0659622,35.1431465 66.5420353,37.2751901 68.0336732,39.0434603 C69.3628554,40.6189394 71.1220672,41.1938235 73.1271343,41.1624186 C75.987048,41.117056 78.1146083,39.7177933 79.8312516,37.5395147 C80.7677604,36.349618 81.5348636,35.0602725 82.1351675,33.6697334 C82.2020609,33.515326 82.2776419,33.364408 82.3584353,33.1899363" id="Fill-6"></path>
                <path d="M48.0856003,50 L38,50 C38.2520965,48.7400176 38.4963694,47.5108956 38.7432502,46.2826552 C40.3436286,38.3330394 41.9448763,30.3825419 43.546124,22.4329261 C43.9642565,20.3573498 44.4041215,18.2861821 44.7935672,16.2044338 C44.8761505,15.7653357 45.0621804,15.656002 45.4559726,15.6321955 C47.5127327,15.5087543 49.5677541,15.3641517 51.6236449,15.2266028 C52.7189609,15.1534198 53.8134076,15.0793551 55,15 C52.6867969,26.7066381 50.3883719,38.3445018 48.0856003,50" id="Fill-8"></path>
                <path d="M53.9976902,4.45344889 C53.927734,7.02829607 52.1957429,8.85673813 49.7003843,8.99199274 C47.580175,9.10720964 45.8950776,7.97257368 45.2654723,6.00553738 C44.3129925,3.02743106 46.0119274,0.248032146 48.9477792,0.0209379721 C50.3107708,-0.0842600644 51.5953501,0.192093508 52.6723672,1.18897014 C53.5948658,2.0422431 54.0361276,3.13513381 53.9976902,4.45344889" id="Fill-10"></path>
            </g>
        </g>
    </g>
</svg>